<?xml version="1.0" encoding="utf-8"?>
<!-- Generator: Adobe Illustrator 16.0.0, SVG Export Plug-In . SVG Version: 6.00 Build 0)  -->
<!DOCTYPE svg PUBLIC "-//W3C//DTD SVG 1.1//EN" "http://www.w3.org/Graphics/SVG/1.1/DTD/svg11.dtd">
<svg version="1.1" id="result-svg" xmlns="http://www.w3.org/2000/svg" xmlns:xlink="http://www.w3.org/1999/xlink" x="0px" y="0px"
	 width="499.334px" height="198.167px" viewBox="0 0 499.334 198.167" enable-background="new 0 0 499.334 198.167"
	 xml:space="preserve">
<g>
	<defs>
		<polygon id="SVGID_1_" points="-849,86 -848,86 -849,87 		"/>
	</defs>
	<defs>
		<polygon id="SVGID_2_" points="-851,84 -852,84 -851,83 		"/>
	</defs>
	<clipPath id="SVGID_3_">
		<use xlink:href="#SVGID_1_"  overflow="visible"/>
	</clipPath>
	<clipPath id="SVGID_4_" clip-path="url(#SVGID_3_)">
		<use xlink:href="#SVGID_2_"  overflow="visible"/>
	</clipPath>
	<path clip-path="url(#SVGID_4_)" fill="#FFFEFE" stroke="#E4E2E2" d="M-845,85.5h485c2.485,0,4.5,0,4.5,0l0,0c0,0-2.015,0-4.5,0
		H-845c-2.485,0-4.5,0-4.5,0l0,0C-849.5,85.5-847.485,85.5-845,85.5z"/>
</g>
<g>
	<defs>
		<polygon id="SVGID_5_" points="-849,86 -848,86 -849,87 		"/>
	</defs>
	<defs>
		<polygon id="SVGID_6_" points="-851,84 -852,84 -851,83 		"/>
	</defs>
	<clipPath id="SVGID_7_">
		<use xlink:href="#SVGID_5_"  overflow="visible"/>
	</clipPath>
	<clipPath id="SVGID_8_" clip-path="url(#SVGID_7_)">
		<use xlink:href="#SVGID_6_"  overflow="visible"/>
	</clipPath>
	<path clip-path="url(#SVGID_8_)" fill="#FFFEFE" stroke="#E4E2E2" d="M-345,85.5h485c2.485,0,4.5,0,4.5,0l0,0c0,0-2.015,0-4.5,0
		H-345c-2.485,0-4.5,0-4.5,0l0,0C-349.5,85.5-347.485,85.5-345,85.5z"/>
</g>
<g>
	<defs>
		<polygon id="SVGID_9_" points="-849,86 -848,86 -849,87 		"/>
	</defs>
	<defs>
		<polygon id="SVGID_10_" points="-851,84 -852,84 -851,83 		"/>
	</defs>
	<clipPath id="SVGID_11_">
		<use xlink:href="#SVGID_9_"  overflow="visible"/>
	</clipPath>
	<clipPath id="SVGID_12_" clip-path="url(#SVGID_11_)">
		<use xlink:href="#SVGID_10_"  overflow="visible"/>
	</clipPath>
	<path clip-path="url(#SVGID_12_)" fill="#FFFEFE" stroke="#E4E2E2" d="M-845,85.5h485c2.485,0,4.5,0,4.5,0l0,0c0,0-2.015,0-4.5,0
		H-845c-2.485,0-4.5,0-4.5,0l0,0C-849.5,85.5-847.485,85.5-845,85.5z"/>
</g>
<path fill="#FFFEFE" stroke="#E4E2E2" d="M6.5,2.167h485c2.485,0,4.5,2.015,4.5,4.5v184c0,2.485-2.015,4.5-4.5,4.5H6.5
	c-2.485,0-4.5-2.015-4.5-4.5v-184C2,4.182,4.015,2.167,6.5,2.167z"/>
<text transform="matrix(1 0 0 1 26.5 37.667)" fill="#2F80ED" font-family="'SegoeUI-Semibold'" font-size="18">My job experience</text>
<text transform="matrix(1 0 0 1 421.5 45.667)" fill="#2F80ED" font-family="'SegoeUI-Bold'" font-size="12">+ more</text>
<g>
	<path fill="#FAFBFC" stroke="#E4E2E2" d="M31,53.667h206c2.485,0,4.5,2.015,4.5,4.5v109c0,2.485-2.015,4.5-4.5,4.5H31
		c-2.485,0-4.5-2.015-4.5-4.5v-109C26.5,55.682,28.515,53.667,31,53.667z"/>
	<text transform="matrix(1 0 0 1 31.5 69.667)" fill="#333333" font-family="'SegoeUI-Bold'" font-size="11">Company name</text>
	<text transform="matrix(1 0 0 1 31.5 85.667)" fill="#333333" font-family="'SegoeUI'" font-size="12">Hypixel Studios</text>
	<text transform="matrix(1 0 0 1 31.5 107.667)" fill="#333333" font-family="'SegoeUI-Bold'" font-size="11">Position</text>
	<text transform="matrix(1 0 0 1 31.5 123.667)" fill="#333333" font-family="'SegoeUI'" font-size="12">Senior Backend Java Engineer</text>
	<text transform="matrix(1 0 0 1 31.5 145.667)" fill="#333333" font-family="'SegoeUI-Bold'" font-size="11">Job years</text>
	<text transform="matrix(1 0 0 1 31.5 161.667)" fill="#333333" font-family="'SegoeUI'" font-size="12">02/2020-Present</text>
</g>
<g>
	<path fill="#FAFBFC" stroke="#E4E2E2" d="M259,53.667h206c2.485,0,4.5,2.015,4.5,4.5v109c0,2.485-2.015,4.5-4.5,4.5H259
		c-2.485,0-4.5-2.015-4.5-4.5v-109C254.5,55.682,256.515,53.667,259,53.667z"/>
	<text transform="matrix(1 0 0 1 259.5 69.667)" fill="#333333" font-family="'SegoeUI-Bold'" font-size="11">Company name</text>
	<text transform="matrix(1 0 0 1 259.5 85.667)" fill="#333333" font-family="'SegoeUI'" font-size="12">Discord</text>
	<text transform="matrix(1 0 0 1 259.5 107.667)" fill="#333333" font-family="'SegoeUI-Bold'" font-size="11">Position</text>
	<text transform="matrix(1 0 0 1 259.5 123.667)" fill="#333333" font-family="'SegoeUI'" font-size="12">Senior Product Designer</text>
	<text transform="matrix(1 0 0 1 259.5 145.667)" fill="#333333" font-family="'SegoeUI-Bold'" font-size="11">Job years</text>
	<text transform="matrix(1 0 0 1 259.5 161.667)" fill="#333333" font-family="'SegoeUI'" font-size="12">2017-2019</text>
</g>
<g>
	<defs>
		<polygon id="SVGID_13_" points="-245,-261 -244,-261 -245,-260 		"/>
	</defs>
	<defs>
		<polygon id="SVGID_14_" points="-247,-263 -248,-263 -247,-264 		"/>
	</defs>
	<clipPath id="SVGID_15_">
		<use xlink:href="#SVGID_13_"  overflow="visible"/>
	</clipPath>
	<clipPath id="SVGID_16_" clip-path="url(#SVGID_15_)">
		<use xlink:href="#SVGID_14_"  overflow="visible"/>
	</clipPath>
	<path clip-path="url(#SVGID_16_)" fill="#FFFEFE" stroke="#E4E2E2" d="M-241-67.5h485c2.485,0,4.5,0,4.5,0l0,0c0,0-2.015,0-4.5,0
		H-241c-2.485,0-4.5,0-4.5,0l0,0C-245.5-67.5-243.485-67.5-241-67.5z"/>
</g>
<g>
	<defs>
		<polygon id="SVGID_17_" points="-245,-261 -244,-261 -245,-260 		"/>
	</defs>
	<defs>
		<polygon id="SVGID_18_" points="-247,-263 -248,-263 -247,-264 		"/>
	</defs>
	<clipPath id="SVGID_19_">
		<use xlink:href="#SVGID_17_"  overflow="visible"/>
	</clipPath>
	<clipPath id="SVGID_20_" clip-path="url(#SVGID_19_)">
		<use xlink:href="#SVGID_18_"  overflow="visible"/>
	</clipPath>
	<path clip-path="url(#SVGID_20_)" fill="#FFFEFE" stroke="#E4E2E2" d="M259-67.5h485c2.485,0,4.5,0,4.5,0l0,0c0,0-2.015,0-4.5,0
		H259c-2.485,0-4.5,0-4.5,0l0,0C254.5-67.5,256.515-67.5,259-67.5z"/>
</g>
</svg>
