<?xml version="1.0" encoding="utf-8"?>
<!-- Generator: Adobe Illustrator 16.0.0, SVG Export Plug-In . SVG Version: 6.00 Build 0)  -->
<!DOCTYPE svg PUBLIC "-//W3C//DTD SVG 1.1//EN" "http://www.w3.org/Graphics/SVG/1.1/DTD/svg11.dtd">
<svg version="1.1" id="result-svg" xmlns="http://www.w3.org/2000/svg" xmlns:xlink="http://www.w3.org/1999/xlink" x="0px" y="0px"
	 width="496.667px" height="83.5px" viewBox="-140 0 496.667 83.5" enable-background="new -140 0 496.667 83.5"
	 xml:space="preserve">
<path fill="#FFFEFE" stroke="#E4E2E2" d="M-134,1.5h485c2.485,0,4.5,2.015,4.5,4.5v72c0,2.485-2.015,4.5-4.5,4.5h-485
	c-2.485,0-4.5-2.015-4.5-4.5V6C-138.5,3.515-136.485,1.5-134,1.5z"/>
<text transform="matrix(1 0 0 1 -114 37)" fill="#2F80ED" font-family="'SegoeUI-Semibold'" font-size="18">Programming languages I code in</text>
<text transform="matrix(1 0 0 1 -114 61)" fill="#333333" font-family="'SegoeUI'" font-size="14">Python, C#, Ruby, CSS</text>
<g>
	<defs>
		<polygon id="SVGID_1_" points="-245,-373 -244,-373 -245,-372 		"/>
	</defs>
	<defs>
		<polygon id="SVGID_2_" points="-247,-375 -248,-375 -247,-376 		"/>
	</defs>
	<clipPath id="SVGID_3_">
		<use xlink:href="#SVGID_1_"  overflow="visible"/>
	</clipPath>
	<clipPath id="SVGID_4_" clip-path="url(#SVGID_3_)">
		<use xlink:href="#SVGID_2_"  overflow="visible"/>
	</clipPath>
	<path clip-path="url(#SVGID_4_)" fill="#FFFEFE" stroke="#E4E2E2" d="M259-373.5h485c2.485,0,4.5,0,4.5,0l0,0c0,0-2.015,0-4.5,0
		H259c-2.485,0-4.5,0-4.5,0l0,0C254.5-373.5,256.515-373.5,259-373.5z"/>
</g>
<g>
	<defs>
		<polygon id="SVGID_5_" points="-245,-373 -244,-373 -245,-372 		"/>
	</defs>
	<defs>
		<polygon id="SVGID_6_" points="-247,-375 -248,-375 -247,-376 		"/>
	</defs>
	<clipPath id="SVGID_7_">
		<use xlink:href="#SVGID_5_"  overflow="visible"/>
	</clipPath>
	<clipPath id="SVGID_8_" clip-path="url(#SVGID_7_)">
		<use xlink:href="#SVGID_6_"  overflow="visible"/>
	</clipPath>
	<path clip-path="url(#SVGID_8_)" fill="#FFFEFE" stroke="#E4E2E2" d="M-241-291.5h485c2.485,0,4.5,0,4.5,0l0,0c0,0-2.015,0-4.5,0
		H-241c-2.485,0-4.5,0-4.5,0l0,0C-245.5-291.5-243.485-291.5-241-291.5z"/>
</g>
<g>
	<defs>
		<polygon id="SVGID_9_" points="-245,-373 -244,-373 -245,-372 		"/>
	</defs>
	<defs>
		<polygon id="SVGID_10_" points="-247,-375 -248,-375 -247,-376 		"/>
	</defs>
	<clipPath id="SVGID_11_">
		<use xlink:href="#SVGID_9_"  overflow="visible"/>
	</clipPath>
	<clipPath id="SVGID_12_" clip-path="url(#SVGID_11_)">
		<use xlink:href="#SVGID_10_"  overflow="visible"/>
	</clipPath>
	<path clip-path="url(#SVGID_12_)" fill="#FFFEFE" stroke="#E4E2E2" d="M259-291.5h485c2.485,0,4.5,0,4.5,0l0,0c0,0-2.015,0-4.5,0
		H259c-2.485,0-4.5,0-4.5,0l0,0C254.5-291.5,256.515-291.5,259-291.5z"/>
</g>
<g>
	<defs>
		<polygon id="SVGID_13_" points="-245,-373 -244,-373 -245,-372 		"/>
	</defs>
	<defs>
		<polygon id="SVGID_14_" points="-247,-375 -248,-375 -247,-376 		"/>
	</defs>
	<clipPath id="SVGID_15_">
		<use xlink:href="#SVGID_13_"  overflow="visible"/>
	</clipPath>
	<clipPath id="SVGID_16_" clip-path="url(#SVGID_15_)">
		<use xlink:href="#SVGID_14_"  overflow="visible"/>
	</clipPath>
	<path clip-path="url(#SVGID_16_)" fill="#FFFEFE" stroke="#E4E2E2" d="M-241-291.5h485c2.485,0,4.5,0,4.5,0l0,0c0,0-2.015,0-4.5,0
		H-241c-2.485,0-4.5,0-4.5,0l0,0C-245.5-291.5-243.485-291.5-241-291.5z"/>
</g>
<g>
	<defs>
		<polygon id="SVGID_17_" points="-245,-373 -244,-373 -245,-372 		"/>
	</defs>
	<defs>
		<polygon id="SVGID_18_" points="-247,-375 -248,-375 -247,-376 		"/>
	</defs>
	<clipPath id="SVGID_19_">
		<use xlink:href="#SVGID_17_"  overflow="visible"/>
	</clipPath>
	<clipPath id="SVGID_20_" clip-path="url(#SVGID_19_)">
		<use xlink:href="#SVGID_18_"  overflow="visible"/>
	</clipPath>
	<path clip-path="url(#SVGID_20_)" fill="#FFFEFE" stroke="#E4E2E2" d="M259-291.5h485c2.485,0,4.5,0,4.5,0l0,0c0,0-2.015,0-4.5,0
		H259c-2.485,0-4.5,0-4.5,0l0,0C254.5-291.5,256.515-291.5,259-291.5z"/>
</g>
</svg>
