<?xml version="1.0" encoding="utf-8"?>
<!-- Generator: Adobe Illustrator 16.0.0, SVG Export Plug-In . SVG Version: 6.00 Build 0)  -->
<!DOCTYPE svg PUBLIC "-//W3C//DTD SVG 1.1//EN" "http://www.w3.org/Graphics/SVG/1.1/DTD/svg11.dtd">
<svg version="1.1" id="result-svg" xmlns="http://www.w3.org/2000/svg" xmlns:xlink="http://www.w3.org/1999/xlink" x="0px" y="0px"
	 width="498px" height="86px" viewBox="0 0 498 86" enable-background="new 0 0 498 86" xml:space="preserve">
<g>
	<defs>
		<polygon id="SVGID_1_" points="-278.5,-35.5 -277.5,-35.5 -278.5,-34.5 		"/>
	</defs>
	<defs>
		<polygon id="SVGID_2_" points="-280.5,-37.5 -281.5,-37.5 -280.5,-38.5 		"/>
	</defs>
	<clipPath id="SVGID_3_">
		<use xlink:href="#SVGID_1_"  overflow="visible"/>
	</clipPath>
	<clipPath id="SVGID_4_" clip-path="url(#SVGID_3_)">
		<use xlink:href="#SVGID_2_"  overflow="visible"/>
	</clipPath>
	<path clip-path="url(#SVGID_4_)" fill="#FFFEFE" stroke="#E4E2E2" d="M-274.5-36h485c2.485,0,4.5,0,4.5,0l0,0c0,0-2.015,0-4.5,0
		H-274.5c-2.485,0-4.5,0-4.5,0l0,0C-279-36-276.985-36-274.5-36z"/>
</g>
<path fill="#FFFEFE" stroke="#E4E2E2" d="M6.5,2h485c2.485,0,4.5,2.015,4.5,4.5v72c0,2.485-2.015,4.5-4.5,4.5H6.5
	C4.015,83,2,80.985,2,78.5v-72C2,4.015,4.015,2,6.5,2z"/>
<text transform="matrix(1 0 0 1 26.5 37.5)" fill="#2F80ED" font-family="'SegoeUI-Semibold'" font-size="18">Technologies I use</text>
<text transform="matrix(1 0 0 1 26.5 61.5)" fill="#333333" font-family="'SegoeUI'" font-size="14">Vue.js, VSC, Git</text>
<g>
	<defs>
		<polygon id="SVGID_5_" points="-57,-353.5 -56,-353.5 -57,-352.5 		"/>
	</defs>
	<defs>
		<polygon id="SVGID_6_" points="-59,-355.5 -60,-355.5 -59,-356.5 		"/>
	</defs>
	<clipPath id="SVGID_7_">
		<use xlink:href="#SVGID_5_"  overflow="visible"/>
	</clipPath>
	<clipPath id="SVGID_8_" clip-path="url(#SVGID_7_)">
		<use xlink:href="#SVGID_6_"  overflow="visible"/>
	</clipPath>
	<path clip-path="url(#SVGID_8_)" fill="#FFFEFE" stroke="#E4E2E2" d="M-53-272h485c2.485,0,4.5,0,4.5,0l0,0c0,0-2.015,0-4.5,0H-53
		c-2.485,0-4.5,0-4.5,0l0,0C-57.5-272-55.485-272-53-272z"/>
</g>
<g>
	<defs>
		<polygon id="SVGID_9_" points="-57,-353.5 -56,-353.5 -57,-352.5 		"/>
	</defs>
	<defs>
		<polygon id="SVGID_10_" points="-59,-355.5 -60,-355.5 -59,-356.5 		"/>
	</defs>
	<clipPath id="SVGID_11_">
		<use xlink:href="#SVGID_9_"  overflow="visible"/>
	</clipPath>
	<clipPath id="SVGID_12_" clip-path="url(#SVGID_11_)">
		<use xlink:href="#SVGID_10_"  overflow="visible"/>
	</clipPath>
	<path clip-path="url(#SVGID_12_)" fill="#FFFEFE" stroke="#E4E2E2" d="M447-272h485c2.485,0,4.5,0,4.5,0l0,0c0,0-2.015,0-4.5,0H447
		c-2.485,0-4.5,0-4.5,0l0,0C442.5-272,444.515-272,447-272z"/>
</g>
<g>
	<defs>
		<polygon id="SVGID_13_" points="-57,-353.5 -56,-353.5 -57,-352.5 		"/>
	</defs>
	<defs>
		<polygon id="SVGID_14_" points="-59,-355.5 -60,-355.5 -59,-356.5 		"/>
	</defs>
	<clipPath id="SVGID_15_">
		<use xlink:href="#SVGID_13_"  overflow="visible"/>
	</clipPath>
	<clipPath id="SVGID_16_" clip-path="url(#SVGID_15_)">
		<use xlink:href="#SVGID_14_"  overflow="visible"/>
	</clipPath>
	<path clip-path="url(#SVGID_16_)" fill="#FFFEFE" stroke="#E4E2E2" d="M-53-272h485c2.485,0,4.5,0,4.5,0l0,0c0,0-2.015,0-4.5,0H-53
		c-2.485,0-4.5,0-4.5,0l0,0C-57.5-272-55.485-272-53-272z"/>
</g>
<g>
	<defs>
		<polygon id="SVGID_17_" points="-57,-353.5 -56,-353.5 -57,-352.5 		"/>
	</defs>
	<defs>
		<polygon id="SVGID_18_" points="-59,-355.5 -60,-355.5 -59,-356.5 		"/>
	</defs>
	<clipPath id="SVGID_19_">
		<use xlink:href="#SVGID_17_"  overflow="visible"/>
	</clipPath>
	<clipPath id="SVGID_20_" clip-path="url(#SVGID_19_)">
		<use xlink:href="#SVGID_18_"  overflow="visible"/>
	</clipPath>
	<path clip-path="url(#SVGID_20_)" fill="#FFFEFE" stroke="#E4E2E2" d="M447-272h485c2.485,0,4.5,0,4.5,0l0,0c0,0-2.015,0-4.5,0H447
		c-2.485,0-4.5,0-4.5,0l0,0C442.5-272,444.515-272,447-272z"/>
</g>
</svg>
